<svg width="41" height="41" viewBox="0 0 41 41" fill="none" xmlns="http://www.w3.org/2000/svg">
<g filter="url(#filter0_d_65732_3)">
<path d="M36.7905 29.5903L23.9905 16.7903L36.7905 3.99028L33.5905 0.790283L20.7905 13.5903L7.99053 0.790283L4.79053 3.99028L17.5905 16.7903L4.79053 29.5903L7.99053 32.7903L20.7905 19.9903L33.5905 32.7903L36.7905 29.5903Z" fill="white"/>
<path d="M7.99053 32.0832L5.49763 29.5903L17.9441 17.1438L18.2976 16.7903L17.9441 16.4367L5.49763 3.99028L7.99053 1.49739L20.437 13.9438L20.7905 14.2974L21.1441 13.9438L33.5905 1.49739L36.0834 3.99028L23.637 16.4367L23.2834 16.7903L23.637 17.1438L36.0834 29.5903L33.5905 32.0832L21.1441 19.6367L20.7905 19.2832L20.437 19.6367L7.99053 32.0832Z" stroke="black"/>
</g>
<defs>
<filter id="filter0_d_65732_3" x="0.790527" y="0.790283" width="40" height="40" filterUnits="userSpaceOnUse" color-interpolation-filters="sRGB">
<feFlood flood-opacity="0" result="BackgroundImageFix"/>
<feColorMatrix in="SourceAlpha" type="matrix" values="0 0 0 0 0 0 0 0 0 0 0 0 0 0 0 0 0 0 127 0" result="hardAlpha"/>
<feOffset dy="4"/>
<feGaussianBlur stdDeviation="2"/>
<feComposite in2="hardAlpha" operator="out"/>
<feColorMatrix type="matrix" values="0 0 0 0 0 0 0 0 0 0 0 0 0 0 0 0 0 0 0.25 0"/>
<feBlend mode="normal" in2="BackgroundImageFix" result="effect1_dropShadow_65732_3"/>
<feBlend mode="normal" in="SourceGraphic" in2="effect1_dropShadow_65732_3" result="shape"/>
</filter>
</defs>
</svg>
